<?xml version="1.0" encoding="utf-8"?>
<!-- Svg Vector Icons : http://www.onlinewebfonts.com/icon -->
<!DOCTYPE svg PUBLIC "-//W3C//DTD SVG 1.1//EN" "http://www.w3.org/Graphics/SVG/1.1/DTD/svg11.dtd">
<svg version="1.1" xmlns="http://www.w3.org/2000/svg" xmlns:xlink="http://www.w3.org/1999/xlink" x="0px" y="0px" viewBox="0 0 1000 1000" enable-background="new 0 0 1000 1000" xml:space="preserve">
<metadata> Svg Vector Icons : http://www.onlinewebfonts.com/icon </metadata>
<g><path d="M982.9,851.4L556.8,90.3c-10.5-20-31.1-32.7-53.7-33.4c-0.5,0-1.1,0-1.7,0c-22,0-42.4,11.5-53.7,30.5l-428.9,761C7.3,867.8,7,891.7,18.2,911.3c11.1,19.6,31.9,31.7,54.4,31.7h854.9c21.9,0,42.2-11.5,53.5-30.2C992.3,894.1,993,870.8,982.9,851.4z M72.5,880.6l428.9-761.1l426,761.1H72.5z"/><path d="M500.3,683.6c-36.5,0-62.1,25.6-62.1,62.8c0,35.8,24.9,62.8,60.7,62.8h1.4c37.3,0,61.5-27,61.5-62.8C561.1,709.1,536.9,683.6,500.3,683.6z"/><path d="M461,649h78.7l15.2-312.6h-109L461,649z"/></g>
</svg>